<svg width="13" height="14" viewBox="0 0 13 14" fill="none" xmlns="http://www.w3.org/2000/svg">
<path d="M9.5512 11.7794C8.79096 12.1861 7.92237 12.4166 6.99992 12.4166C4.00838 12.4166 1.58325 9.99152 1.58325 6.99998C1.58325 4.00844 4.00838 1.58331 6.99992 1.58331C9.99146 1.58331 12.4166 4.00844 12.4166 6.99998C12.4166 8.93568 11.9157 9.65521 11.0359 9.65521C10.156 9.65521 9.44273 8.08601 9.44273 6.15031V4.45096M9.44273 6.99998C9.44273 8.34911 8.34905 9.44279 6.99992 9.44279C5.65079 9.44279 4.55711 8.34911 4.55711 6.99998C4.55711 5.65085 5.65079 4.55717 6.99992 4.55717C8.34905 4.55717 9.44273 5.65085 9.44273 6.99998Z" stroke="#687372" stroke-linecap="round"/>
</svg>
