<svg width="13" height="13" viewBox="0 0 13 13" fill="none" xmlns="http://www.w3.org/2000/svg">
<path d="M6.60807 6.39179L5.8443 7.15554C5.4218 7.57804 5.4218 8.26596 5.8443 8.68846C6.2668 9.11096 6.95473 9.11096 7.37723 8.68846L8.57974 7.48596C9.42474 6.64096 9.42474 5.27054 8.57974 4.42013C7.73474 3.57513 6.36431 3.57513 5.51389 4.42013L4.20307 5.73095C3.47723 6.45678 3.47723 7.6322 4.20307 8.35804" stroke="#687372" stroke-linecap="round" stroke-linejoin="round"/>
<path d="M6.49992 11.9166C9.49146 11.9166 11.9166 9.49152 11.9166 6.49998C11.9166 3.50844 9.49146 1.08331 6.49992 1.08331C3.50838 1.08331 1.08325 3.50844 1.08325 6.49998C1.08325 9.49152 3.50838 11.9166 6.49992 11.9166Z" stroke="#687372" stroke-linecap="round" stroke-linejoin="round"/>
</svg>
