<svg width="13" height="13" viewBox="0 0 13 13" fill="none" xmlns="http://www.w3.org/2000/svg">
<path d="M4.33304 11.9167H8.66637C10.8439 11.9167 11.2339 11.0446 11.3476 9.98292L11.7539 5.64958C11.9001 4.32792 11.521 3.25 9.20804 3.25H3.79137C1.47845 3.25 1.09929 4.32792 1.24554 5.64958L1.65179 9.98292C1.76554 11.0446 2.15554 11.9167 4.33304 11.9167Z" stroke="#687372" stroke-miterlimit="10" stroke-linecap="round" stroke-linejoin="round"/>
<path d="M4.33325 3.24998V2.81665C4.33325 1.8579 4.33325 1.08331 6.06659 1.08331H6.93325C8.66659 1.08331 8.66659 1.8579 8.66659 2.81665V3.24998" stroke="#687372" stroke-miterlimit="10" stroke-linecap="round" stroke-linejoin="round"/>
<path d="M7.58341 7.04167V7.58333C7.58341 7.58875 7.58341 7.58875 7.58341 7.59417C7.58341 8.18458 7.578 8.66667 6.50008 8.66667C5.42758 8.66667 5.41675 8.19 5.41675 7.59958V7.04167C5.41675 6.5 5.41675 6.5 5.95841 6.5H7.04175C7.58341 6.5 7.58341 6.5 7.58341 7.04167Z" stroke="#687372" stroke-miterlimit="10" stroke-linecap="round" stroke-linejoin="round"/>
<path d="M11.727 5.95831C10.4758 6.86831 9.04575 7.40998 7.58325 7.59415" stroke="#687372" stroke-miterlimit="10" stroke-linecap="round" stroke-linejoin="round"/>
<path d="M1.41919 6.10468C2.63794 6.93884 4.01377 7.44259 5.41669 7.59967" stroke="#687372" stroke-miterlimit="10" stroke-linecap="round" stroke-linejoin="round"/>
</svg>
