<svg width="12" height="12" viewBox="0 0 12 12" fill="none" xmlns="http://www.w3.org/2000/svg">
<path d="M2.76999 9.75999C2.46499 9.75999 2.17999 9.65499 1.97499 9.45999C1.71499 9.21499 1.58999 8.84499 1.63499 8.44499L1.81999 6.82499C1.85499 6.51999 2.03999 6.11499 2.25499 5.89499L6.35999 1.54999C7.38499 0.464994 8.45499 0.434994 9.53999 1.45999C10.625 2.48499 10.655 3.55499 9.62999 4.63999L5.52499 8.98499C5.31499 9.20999 4.92499 9.41999 4.61999 9.46999L3.00999 9.74499C2.92499 9.74999 2.84999 9.75999 2.76999 9.75999ZM7.96499 1.45499C7.57999 1.45499 7.24499 1.69499 6.90499 2.05499L2.79999 6.40499C2.69999 6.50999 2.58499 6.75999 2.56499 6.90499L2.37999 8.52499C2.35999 8.68999 2.39999 8.82499 2.48999 8.90999C2.57999 8.99499 2.71499 9.02499 2.87999 8.99999L4.48999 8.72499C4.63499 8.69999 4.87499 8.56999 4.97499 8.46499L9.07999 4.11999C9.69999 3.45999 9.92499 2.84999 9.01999 1.99999C8.61999 1.61499 8.27499 1.45499 7.96499 1.45499Z" fill="#455755"/>
<path d="M8.67022 5.47499C8.66022 5.47499 8.64522 5.47499 8.63522 5.47499C7.07522 5.31999 5.82022 4.13499 5.58022 2.58499C5.55022 2.37999 5.69022 2.18999 5.89522 2.15499C6.10022 2.12499 6.29022 2.26499 6.32522 2.46999C6.51522 3.67999 7.49522 4.60999 8.71522 4.72999C8.92022 4.74999 9.07022 4.93499 9.05022 5.13999C9.02522 5.32999 8.86022 5.47499 8.67022 5.47499Z" fill="#455755"/>
<path d="M10.5 11.375H1.5C1.295 11.375 1.125 11.205 1.125 11C1.125 10.795 1.295 10.625 1.5 10.625H10.5C10.705 10.625 10.875 10.795 10.875 11C10.875 11.205 10.705 11.375 10.5 11.375Z" fill="#455755"/>
</svg>
