<svg width="14" height="14" viewBox="0 0 14 14" fill="none" xmlns="http://www.w3.org/2000/svg">
<path d="M8.75008 13.2709H5.25008C2.08258 13.2709 0.729248 11.9176 0.729248 8.75008V5.25008C0.729248 2.08258 2.08258 0.729248 5.25008 0.729248H8.75008C11.9176 0.729248 13.2709 2.08258 13.2709 5.25008V8.75008C13.2709 11.9176 11.9176 13.2709 8.75008 13.2709ZM5.25008 1.60425C2.56091 1.60425 1.60425 2.56091 1.60425 5.25008V8.75008C1.60425 11.4392 2.56091 12.3959 5.25008 12.3959H8.75008C11.4392 12.3959 12.3959 11.4392 12.3959 8.75008V5.25008C12.3959 2.56091 11.4392 1.60425 8.75008 1.60425H5.25008Z" fill="#687372"/>
<path d="M8.74992 9.40901H5.87992C4.64909 9.40901 3.64575 8.40568 3.64575 7.17484C3.64575 5.94401 4.64909 4.94067 5.87992 4.94067H9.82909C10.0683 4.94067 10.2666 5.13901 10.2666 5.37817C10.2666 5.61734 10.0683 5.81567 9.82909 5.81567H5.87992C5.13325 5.81567 4.52075 6.42234 4.52075 7.17484C4.52075 7.92734 5.12742 8.53401 5.87992 8.53401H8.74992C8.98909 8.53401 9.18742 8.73234 9.18742 8.97151C9.18742 9.21067 8.98909 9.40901 8.74992 9.40901Z" fill="#687372"/>
<path d="M9.00098 6.7201C8.89015 6.7201 8.77932 6.67927 8.69182 6.59177C8.52265 6.4226 8.52265 6.1426 8.69182 5.97343L9.29849 5.36677L8.69182 4.7601C8.52265 4.59094 8.52265 4.31093 8.69182 4.14177C8.86098 3.9726 9.14099 3.9726 9.31016 4.14177L10.226 5.0576C10.3952 5.22677 10.3952 5.50677 10.226 5.67594L9.31016 6.59177C9.22266 6.67344 9.11182 6.7201 9.00098 6.7201Z" fill="#687372"/>
</svg>
