<svg width="20" height="20" viewBox="0 0 20 20" fill="none" xmlns="http://www.w3.org/2000/svg">
<path d="M7.49996 18.3333H12.5C16.6666 18.3333 18.3333 16.6666 18.3333 12.5V7.49996C18.3333 3.33329 16.6666 1.66663 12.5 1.66663H7.49996C3.33329 1.66663 1.66663 3.33329 1.66663 7.49996V12.5C1.66663 16.6666 3.33329 18.3333 7.49996 18.3333Z" stroke="#525B59" stroke-width="1.5" stroke-linecap="round" stroke-linejoin="round"/>
<path d="M7.49992 8.33333C8.42039 8.33333 9.16659 7.58714 9.16659 6.66667C9.16659 5.74619 8.42039 5 7.49992 5C6.57944 5 5.83325 5.74619 5.83325 6.66667C5.83325 7.58714 6.57944 8.33333 7.49992 8.33333Z" stroke="#525B59" stroke-width="1.5" stroke-linecap="round" stroke-linejoin="round"/>
<path d="M2.22498 15.7917L6.33331 13.0333C6.99164 12.5917 7.94164 12.6417 8.53331 13.15L8.80831 13.3917C9.45831 13.95 10.5083 13.95 11.1583 13.3917L14.625 10.4167C15.275 9.85834 16.325 9.85834 16.975 10.4167L18.3333 11.5833" stroke="#525B59" stroke-width="1.5" stroke-linecap="round" stroke-linejoin="round"/>
</svg>
