<svg width="117" height="75" viewBox="0 0 117 75" fill="none" xmlns="http://www.w3.org/2000/svg">
<path d="M45.1865 2.58821C46.9328 1.37278 48.8432 0.188794 51.0156 0.0141638C52.6537 -0.118555 54.379 0.688235 55.1788 2.14814C56.0694 3.61503 55.8738 5.41022 55.7935 7.04476C55.5979 8.95172 55.6224 10.9215 54.9413 12.7377C54.2183 13.0974 53.1601 13.1498 52.8423 12.2417C52.2346 9.6223 52.8981 6.90855 52.6083 4.26116C52.5454 3.26926 51.4138 2.94794 50.6105 3.23783C48.4486 3.7722 46.7302 5.30195 44.9385 6.53833C38.3899 11.5642 31.4292 16.0103 24.6815 20.7567C31.6038 24.3785 34.8554 32.6455 34.5655 40.1546C36.7309 38.7121 39.6542 38.4153 41.9628 39.697C43.6428 40.4864 44.7953 42.0545 45.4729 43.7415C47.2366 38.3419 51.9447 33.84 57.6306 32.9389C58.8356 32.7258 59.2617 34.294 58.406 35.003C57.6725 35.1846 56.9565 35.4221 56.2301 35.6177C54.152 36.8121 52.0809 38.2092 50.7537 40.2524C49.4405 42.0545 48.5394 44.1291 47.9666 46.2806C53.2893 44.0209 58.7063 41.9812 64.1862 40.1336C64.9057 39.8612 66.1281 39.5643 66.3481 40.6086C66.4529 41.5376 65.3388 41.7158 64.6926 41.9952C58.9194 43.9161 53.2299 46.0885 47.5824 48.3517C47.1249 51.1667 47.4043 54.0307 47.9142 56.8212C56.8937 53.4858 65.8452 50.07 74.7548 46.5635C73.6616 42.6133 71.835 38.4432 68.1887 36.2324C66.8371 35.3557 65.1676 35.1811 63.596 35.23C62.7054 35.237 61.7484 35.5932 60.9206 35.0973C60.1662 34.3848 60.1278 33.0227 61.1302 32.5093C63.1838 31.8317 65.4645 32.0203 67.4937 32.7258C70.1097 33.571 72.1214 35.5653 73.8223 37.6434C75.855 40.413 77.2171 43.6472 77.8737 47.014C83.7098 42.3898 89.7276 37.9996 95.5742 33.3929C99.0179 30.8154 102.374 28.1261 105.884 25.6428C107.739 24.361 109.803 23.0374 112.154 23.1351C113.931 23.0897 115.618 24.3191 116.146 26.013C116.903 28.4718 116.229 31.0459 116.104 33.5466C115.926 34.4407 115.985 35.7085 114.951 36.0962C114.406 36.2568 113.938 35.8657 113.477 35.6596C112.999 33.0157 113.421 30.3194 113.275 27.6581C113.261 27.0469 112.87 26.3309 112.192 26.3099C110.767 26.2086 109.492 26.9665 108.343 27.707C105.294 29.7396 102.441 32.0343 99.4929 34.2067C92.3645 39.4037 85.4282 44.8591 78.1985 49.9164C78.45 52.1307 78.1461 54.3555 77.7724 56.5383C84.1185 56.1192 90.5134 56.699 96.7337 58.0052C99.0283 58.578 101.487 59.0355 103.398 60.5234C104.809 61.6166 105.395 63.6178 104.774 65.2978C103.925 67.7915 101.529 69.3108 99.196 70.2293C94.5194 72.0524 89.5355 72.9081 84.583 73.5682C70.637 75.2761 56.4711 73.5193 42.9477 69.9464C31.9426 67.086 21.3181 62.9647 10.7739 58.7561C6.29993 56.5768 3.32773 52.1551 1.77352 47.5449C-0.129942 41.6319 0.0272254 34.9366 2.74097 29.2961C4.65491 25.2866 8.32913 22.1607 12.6285 21.0012C13.3794 20.83 14.3713 20.383 14.972 21.1059C15.5798 21.7556 15.0384 22.7859 14.2246 22.9081C11.6017 23.694 9.26165 25.304 7.55726 27.4415C4.3336 31.4161 3.29979 36.7702 3.80621 41.7751C9.19878 39.5364 14.4272 36.9344 19.6661 34.3569C22.8129 32.6001 25.9283 30.7874 29.0682 29.0132C27.6152 26.5265 25.6 24.0642 22.6977 23.2958C21.1155 22.7719 19.4461 23.1142 17.829 23.1491C16.4948 22.8697 16.2853 20.8719 17.4902 20.2677C18.8314 19.8102 20.2843 19.8451 21.6848 19.922C26.4557 15.895 31.7295 12.5281 36.7589 8.84345C39.6018 6.80377 42.3435 4.62788 45.1865 2.58821ZM4.10658 43.8777C4.94131 47.3493 6.33835 50.8105 8.88794 53.388C10.5888 55.2007 12.88 56.451 15.3353 56.8631C19.2086 57.5896 23.3927 56.238 26.1134 53.3845C29.372 50.0177 30.9891 45.4004 31.5235 40.8147C25.614 43.4621 20.0468 46.808 14.1024 49.3785C13.582 49.6789 12.7019 49.6894 12.6041 48.9315C12.4469 48.1456 13.3061 47.9465 13.8439 47.6741C19.6312 45.1175 24.9818 41.6564 30.804 39.1801C30.9961 39.0998 31.3803 38.9391 31.5723 38.8588C31.5863 36.0578 30.9437 33.2986 29.8715 30.7211C21.6394 35.7644 13.0581 40.2454 4.10658 43.8777ZM36.8112 42.0406C34.5166 43.0918 33.8495 45.7497 33.1126 47.9326C31.8832 51.4007 29.8295 54.6209 26.9796 56.9749C32.7913 56.3043 38.6309 55.9201 44.4635 55.508C44.013 51.7046 44.0933 47.723 42.5426 44.1431C41.5996 42.0371 38.8963 40.9998 36.8112 42.0406ZM48.4311 58.5571C49.6815 62.109 51.7246 65.6191 55.0356 67.6029C58.8391 69.915 63.9347 69.8032 67.6439 67.3514C70.5392 65.5492 72.2332 62.4792 73.7524 59.535C69.5124 61.5851 65.0768 63.1917 60.6447 64.7739C59.8764 64.4526 59.4188 63.2197 60.4422 62.9088C65.0524 61.2149 69.6801 59.5105 74.0772 57.2962C74.4894 57.1251 74.5138 56.6291 74.6291 56.2624C75.2263 53.7547 75.3555 51.1493 75.0971 48.5892C66.2049 51.9037 57.3512 55.3124 48.4311 58.5571Z" fill="#010101"/>
</svg>
