<svg width="14" height="14" viewBox="0 0 14 14" fill="none" xmlns="http://www.w3.org/2000/svg">
<path d="M10.5 6.27092C10.2608 6.27092 10.0625 6.07258 10.0625 5.83342V4.66675C10.0625 2.82925 9.54333 1.60425 7 1.60425C4.45667 1.60425 3.9375 2.82925 3.9375 4.66675V5.83342C3.9375 6.07258 3.73917 6.27092 3.5 6.27092C3.26083 6.27092 3.0625 6.07258 3.0625 5.83342V4.66675C3.0625 2.97508 3.47083 0.729248 7 0.729248C10.5292 0.729248 10.9375 2.97508 10.9375 4.66675V5.83342C10.9375 6.07258 10.7392 6.27092 10.5 6.27092Z" fill="#687372"/>
<path d="M7.00008 11.2292C5.95591 11.2292 5.10425 10.3775 5.10425 9.33333C5.10425 8.28917 5.95591 7.4375 7.00008 7.4375C8.04425 7.4375 8.89592 8.28917 8.89592 9.33333C8.89592 10.3775 8.04425 11.2292 7.00008 11.2292ZM7.00008 8.3125C6.44008 8.3125 5.97925 8.77333 5.97925 9.33333C5.97925 9.89333 6.44008 10.3542 7.00008 10.3542C7.56008 10.3542 8.02092 9.89333 8.02092 9.33333C8.02092 8.77333 7.56008 8.3125 7.00008 8.3125Z" fill="#687372"/>
<path d="M9.91675 13.2708H4.08342C1.51091 13.2708 0.729248 12.4891 0.729248 9.91658V8.74992C0.729248 6.17742 1.51091 5.39575 4.08342 5.39575H9.91675C12.4892 5.39575 13.2709 6.17742 13.2709 8.74992V9.91658C13.2709 12.4891 12.4892 13.2708 9.91675 13.2708ZM4.08342 6.27075C1.99508 6.27075 1.60425 6.66742 1.60425 8.74992V9.91658C1.60425 11.9991 1.99508 12.3958 4.08342 12.3958H9.91675C12.0051 12.3958 12.3959 11.9991 12.3959 9.91658V8.74992C12.3959 6.66742 12.0051 6.27075 9.91675 6.27075H4.08342Z" fill="#687372"/>
</svg>
