<svg width="13" height="14" viewBox="0 0 13 14" fill="none" xmlns="http://www.w3.org/2000/svg">
<path d="M9.34375 6.01416V7.43874C9.34375 7.53083 9.33833 7.61749 9.3275 7.70416C9.24625 8.66291 8.6775 9.13959 7.6375 9.13959H7.49666C7.41 9.13959 7.32334 9.18292 7.26917 9.25333L6.84125 9.82208C6.65167 10.0767 6.34833 10.0767 6.15875 9.82208L5.73083 9.25333C5.68208 9.19375 5.57917 9.13959 5.50334 9.13959H5.3625C4.225 9.13959 3.65625 8.85791 3.65625 7.43332V6.00875C3.65625 4.96875 4.13833 4.39999 5.09166 4.31874C5.17833 4.30791 5.26501 4.30249 5.35709 4.30249H7.63208C8.775 4.31332 9.34375 4.88208 9.34375 6.01416Z" stroke="#687372" stroke-miterlimit="10" stroke-linecap="round" stroke-linejoin="round"/>
<path d="M6.49992 12.4166C9.49146 12.4166 11.9166 9.99152 11.9166 6.99998C11.9166 4.00844 9.49146 1.58331 6.49992 1.58331C3.50838 1.58331 1.08325 4.00844 1.08325 6.99998C1.08325 9.99152 3.50838 12.4166 6.49992 12.4166Z" stroke="#687372" stroke-miterlimit="10" stroke-linecap="round" stroke-linejoin="round"/>
</svg>
