<svg width="12" height="12" viewBox="0 0 12 12" fill="none" xmlns="http://www.w3.org/2000/svg">
<path d="M6.33902 9.97851C6.47639 10.0105 6.48897 10.1904 6.35517 10.235L5.56517 10.495C3.58017 11.135 2.53517 10.6 1.89017 8.61499L1.25017 6.63999C0.610171 4.65499 1.14017 3.60499 3.12517 2.96499C3.43049 2.86388 3.73449 3.17258 3.65742 3.48484C3.65332 3.50145 3.64924 3.51817 3.64517 3.53499L3.15517 5.62999C2.60517 7.98499 3.41017 9.28499 5.76517 9.84499L6.33902 9.97851Z" fill="#687372"/>
<path d="M8.58509 1.605L7.75009 1.41C6.08009 1.015 5.08509 1.34 4.50009 2.55C4.35009 2.855 4.23009 3.225 4.13009 3.65L3.64009 5.745C3.15009 7.835 3.79509 8.865 5.88009 9.36L6.72009 9.56C7.01009 9.63 7.28009 9.675 7.53009 9.695C9.09009 9.845 9.92009 9.115 10.3401 7.31L10.8301 5.22C11.3201 3.13 10.6801 2.095 8.58509 1.605ZM7.64509 6.665C7.60009 6.835 7.45009 6.945 7.28009 6.945C7.25009 6.945 7.22009 6.94 7.18509 6.935L5.73009 6.565C5.53009 6.515 5.41009 6.31 5.46009 6.11C5.51009 5.91 5.71509 5.79 5.91509 5.84L7.37009 6.21C7.57509 6.26 7.69509 6.465 7.64509 6.665ZM9.11009 4.975C9.06509 5.145 8.91509 5.255 8.74509 5.255C8.71509 5.255 8.68509 5.25 8.65009 5.245L6.22509 4.63C6.02509 4.58 5.90509 4.375 5.95509 4.175C6.00509 3.975 6.21009 3.855 6.41009 3.905L8.83509 4.52C9.04009 4.565 9.16009 4.77 9.11009 4.975Z" fill="#687372"/>
</svg>
