<svg width="13" height="14" viewBox="0 0 13 14" fill="none" xmlns="http://www.w3.org/2000/svg">
<path d="M6.5 3.98834V5.79209" stroke="#687372" stroke-miterlimit="10" stroke-linecap="round"/>
<path d="M6.51066 1.58331C4.51732 1.58331 2.90316 3.19748 2.90316 5.19081V6.32831C2.90316 6.69665 2.75149 7.24915 2.56191 7.56331L1.87399 8.71165C1.45149 9.42123 1.74399 10.2121 2.52399 10.4721C5.11316 11.3333 7.91357 11.3333 10.5027 10.4721C11.234 10.2283 11.5482 9.37248 11.1527 8.71165L10.4648 7.56331C10.2752 7.24915 10.1236 6.69123 10.1236 6.32831V5.19081C10.1182 3.20831 8.49316 1.58331 6.51066 1.58331Z" stroke="#687372" stroke-miterlimit="10" stroke-linecap="round"/>
<path d="M8.30354 10.6942C8.30354 11.6854 7.49104 12.4979 6.49979 12.4979C6.00688 12.4979 5.55188 12.2921 5.22688 11.9671C4.90188 11.6421 4.69604 11.1871 4.69604 10.6942" stroke="#687372" stroke-miterlimit="10"/>
</svg>
