<svg width="13" height="14" viewBox="0 0 13 14" fill="none" xmlns="http://www.w3.org/2000/svg">
<path d="M9.75045 4.37835C9.71795 4.37293 9.68003 4.37293 9.64753 4.37835C8.90003 4.35126 8.3042 3.73918 8.3042 2.98084C8.3042 2.20626 8.92711 1.58334 9.7017 1.58334C10.4763 1.58334 11.0992 2.21168 11.0992 2.98084C11.0938 3.73918 10.4979 4.35126 9.75045 4.37835Z" stroke="#7B61FF" stroke-linecap="round" stroke-linejoin="round"/>
<path d="M9.19301 8.32167C9.93509 8.44626 10.753 8.31626 11.3272 7.93167C12.0909 7.42251 12.0909 6.58834 11.3272 6.07917C10.7476 5.69459 9.91884 5.56459 9.17676 5.69459" stroke="#7B61FF" stroke-linecap="round" stroke-linejoin="round"/>
<path d="M3.23327 4.37835C3.26577 4.37293 3.30369 4.37293 3.33619 4.37835C4.08369 4.35126 4.67952 3.73918 4.67952 2.98084C4.67952 2.20626 4.05661 1.58334 3.28202 1.58334C2.50744 1.58334 1.88452 2.21168 1.88452 2.98084C1.88994 3.73918 2.48577 4.35126 3.23327 4.37835Z" stroke="#7B61FF" stroke-linecap="round" stroke-linejoin="round"/>
<path d="M3.79145 8.32167C3.04937 8.44626 2.23145 8.31626 1.65729 7.93167C0.893535 7.42251 0.893535 6.58834 1.65729 6.07917C2.23687 5.69459 3.06562 5.56459 3.8077 5.69459" stroke="#7B61FF" stroke-linecap="round" stroke-linejoin="round"/>
<path d="M6.50045 8.42458C6.46795 8.41916 6.43003 8.41916 6.39753 8.42458C5.65003 8.3975 5.0542 7.78541 5.0542 7.02708C5.0542 6.2525 5.67711 5.62958 6.4517 5.62958C7.22628 5.62958 7.8492 6.25791 7.8492 7.02708C7.84378 7.78541 7.24795 8.40291 6.50045 8.42458Z" stroke="#7B61FF" stroke-linecap="round" stroke-linejoin="round"/>
<path d="M4.92389 10.1308C4.16014 10.64 4.16014 11.4742 4.92389 11.9833C5.79055 12.5629 7.20972 12.5629 8.07639 11.9833C8.84014 11.4742 8.84014 10.64 8.07639 10.1308C7.21514 9.55665 5.79055 9.55665 4.92389 10.1308Z" stroke="#7B61FF" stroke-linecap="round" stroke-linejoin="round"/>
</svg>
