<svg width="14" height="13" viewBox="0 0 14 13" fill="none" xmlns="http://www.w3.org/2000/svg">
<path d="M10.0837 3.87838C10.0512 3.87296 10.0133 3.87296 9.98078 3.87838C9.23328 3.85129 8.63745 3.23921 8.63745 2.48088C8.63745 1.70629 9.26037 1.08337 10.0349 1.08337C10.8095 1.08337 11.4324 1.71171 11.4324 2.48088C11.427 3.23921 10.8312 3.85129 10.0837 3.87838Z" stroke="#687372" stroke-linecap="round" stroke-linejoin="round"/>
<path d="M9.52626 7.82167C10.2683 7.94626 11.0863 7.81626 11.6604 7.43167C12.4242 6.92251 12.4242 6.08834 11.6604 5.57917C11.0808 5.19459 10.2521 5.06459 9.51001 5.19459" stroke="#687372" stroke-linecap="round" stroke-linejoin="round"/>
<path d="M3.56652 3.87838C3.59902 3.87296 3.63694 3.87296 3.66944 3.87838C4.41694 3.85129 5.01277 3.23921 5.01277 2.48088C5.01277 1.70629 4.38986 1.08337 3.61527 1.08337C2.84069 1.08337 2.21777 1.71171 2.21777 2.48088C2.22319 3.23921 2.81902 3.85129 3.56652 3.87838Z" stroke="#687372" stroke-linecap="round" stroke-linejoin="round"/>
<path d="M4.1247 7.82167C3.38262 7.94626 2.5647 7.81626 1.99054 7.43167C1.22679 6.92251 1.22679 6.08834 1.99054 5.57917C2.57012 5.19459 3.39887 5.06459 4.14095 5.19459" stroke="#687372" stroke-linecap="round" stroke-linejoin="round"/>
<path d="M6.8337 7.92452C6.8012 7.9191 6.76328 7.9191 6.73078 7.92452C5.98328 7.89744 5.38745 7.28535 5.38745 6.52702C5.38745 5.75243 6.01037 5.12952 6.78495 5.12952C7.55953 5.12952 8.18245 5.75785 8.18245 6.52702C8.17703 7.28535 7.5812 7.90285 6.8337 7.92452Z" stroke="#687372" stroke-linecap="round" stroke-linejoin="round"/>
<path d="M5.25714 9.63076C4.49339 10.1399 4.49339 10.9741 5.25714 11.4833C6.12381 12.0628 7.54297 12.0628 8.40964 11.4833C9.17339 10.9741 9.17339 10.1399 8.40964 9.63076C7.54839 9.05659 6.12381 9.05659 5.25714 9.63076Z" stroke="#687372" stroke-linecap="round" stroke-linejoin="round"/>
</svg>
