<svg width="14" height="14" viewBox="0 0 14 14" fill="none" xmlns="http://www.w3.org/2000/svg">
<path d="M12.0282 7.62404C11.8065 7.62404 11.6199 7.45488 11.5907 7.23321C11.4507 5.91488 10.739 4.71904 9.64237 3.96071C9.44404 3.82071 9.39737 3.55238 9.53154 3.35404C9.67154 3.15571 9.94571 3.10904 10.1382 3.24321C11.4449 4.14738 12.2849 5.57071 12.454 7.13988C12.4774 7.37904 12.3082 7.59488 12.0632 7.62404C12.0574 7.62404 12.0399 7.62404 12.0282 7.62404Z" fill="#687372"/>
<path d="M2.03578 7.6534C2.01828 7.6534 2.00661 7.6534 1.98911 7.6534C1.74995 7.62424 1.57495 7.4084 1.59828 7.16924C1.75578 5.60007 2.58995 4.18257 3.87911 3.26674C4.07745 3.12674 4.35161 3.1734 4.49161 3.37174C4.63161 3.57007 4.58495 3.84424 4.38661 3.98424C3.30161 4.7484 2.60161 5.94424 2.46745 7.26257C2.44995 7.48424 2.25745 7.6534 2.03578 7.6534Z" fill="#687372"/>
<path d="M7.03506 13.1892C6.17173 13.1892 5.34923 12.9909 4.57923 12.6059C4.36339 12.4951 4.27589 12.2326 4.38673 12.0167C4.49756 11.8009 4.76006 11.7134 4.97589 11.8242C6.23589 12.4601 7.75256 12.4717 9.02423 11.8592C9.24006 11.7542 9.50256 11.8476 9.60756 12.0634C9.71256 12.2792 9.61923 12.5417 9.4034 12.6467C8.65673 13.0084 7.86339 13.1892 7.03506 13.1892Z" fill="#687372"/>
<path d="M7.03524 4.92326C5.89774 4.92326 4.97607 4.0016 4.97607 2.8641C4.97607 1.7266 5.89774 0.804932 7.03524 0.804932C8.17274 0.804932 9.09441 1.7266 9.09441 2.8641C9.09441 4.0016 8.16691 4.92326 7.03524 4.92326ZM7.03524 1.68577C6.38191 1.68577 5.85107 2.2166 5.85107 2.86993C5.85107 3.52326 6.38191 4.0541 7.03524 4.0541C7.68857 4.0541 8.21941 3.52326 8.21941 2.86993C8.21941 2.2166 7.68274 1.68577 7.03524 1.68577Z" fill="#687372"/>
<path d="M2.81747 12.0575C1.67997 12.0575 0.758301 11.1359 0.758301 9.99838C0.758301 8.86671 1.67997 7.93921 2.81747 7.93921C3.95497 7.93921 4.87663 8.86088 4.87663 9.99838C4.87663 11.13 3.95497 12.0575 2.81747 12.0575ZM2.81747 8.81421C2.16413 8.81421 1.6333 9.34504 1.6333 9.99838C1.6333 10.6517 2.16413 11.1825 2.81747 11.1825C3.4708 11.1825 4.00163 10.6517 4.00163 9.99838C4.00163 9.34504 3.4708 8.81421 2.81747 8.81421Z" fill="#687372"/>
<path d="M11.1822 12.0573C10.0447 12.0573 9.12305 11.1356 9.12305 9.99813C9.12305 8.86646 10.0447 7.93896 11.1822 7.93896C12.3197 7.93896 13.2414 8.86063 13.2414 9.99813C13.2355 11.1298 12.3139 12.0573 11.1822 12.0573ZM11.1822 8.81396C10.5289 8.81396 9.99805 9.3448 9.99805 9.99813C9.99805 10.6515 10.5289 11.1823 11.1822 11.1823C11.8355 11.1823 12.3664 10.6515 12.3664 9.99813C12.3605 9.3448 11.8355 8.81396 11.1822 8.81396Z" fill="#687372"/>
</svg>
