<svg width="36" height="36" viewBox="0 0 36 36" fill="none" xmlns="http://www.w3.org/2000/svg">
<path d="M20.9822 3.03436C22.8725 3.76365 24.6007 4.85812 26.068 6.25529C27.5353 7.65246 28.7131 9.32495 29.5341 11.1773C30.355 13.0296 30.8031 15.0255 30.8527 17.051C30.9023 19.0765 30.5525 21.092 29.8232 22.9823C29.0939 24.8726 27.9994 26.6007 26.6023 28.068C25.2051 29.5354 23.5326 30.7131 21.6803 31.5341C19.8279 32.3551 17.8321 32.8031 15.8065 32.8527C13.781 32.9024 11.7656 32.5525 9.8753 31.8232" stroke="#D3DEDC" stroke-width="5.14286"/>
<path d="M20.9822 3.03436C22.8725 3.76365 24.6007 4.85812 26.068 6.25529C27.5353 7.65246 28.7131 9.32495 29.5341 11.1773C30.355 13.0296 30.8031 15.0255 30.8527 17.051C30.9023 19.0765 30.5525 21.092 29.8232 22.9823" stroke="#121F1D" stroke-width="5.14286"/>
</svg>
