<svg width="14" height="14" viewBox="0 0 14 14" fill="none" xmlns="http://www.w3.org/2000/svg">
<path opacity="0.4" d="M9.79325 0.333252H4.20659C1.77992 0.333252 0.333252 1.77992 0.333252 4.20659V9.79325C0.333252 12.2199 1.77992 13.6666 4.20659 13.6666H9.79325C12.2199 13.6666 13.6666 12.2199 13.6666 9.79325V4.20659C13.6666 1.77992 12.2199 0.333252 9.79325 0.333252Z" fill="#687372"/>
<path d="M11.2063 4.91333C11.2063 5.18666 10.9863 5.41333 10.7063 5.41333H7.2063C6.93297 5.41333 6.7063 5.18666 6.7063 4.91333C6.7063 4.64 6.93297 4.41333 7.2063 4.41333H10.7063C10.9863 4.41333 11.2063 4.64 11.2063 4.91333Z" fill="#687372"/>
<path d="M5.64646 4.26671L4.14646 5.76671C4.04646 5.86671 3.9198 5.91337 3.79313 5.91337C3.66646 5.91337 3.53313 5.86671 3.43979 5.76671L2.93979 5.26671C2.73979 5.07337 2.73979 4.75337 2.93979 4.56004C3.13313 4.36671 3.44646 4.36671 3.64646 4.56004L3.79313 4.70671L4.93979 3.56004C5.13313 3.36671 5.44646 3.36671 5.64646 3.56004C5.83979 3.75337 5.83979 4.07337 5.64646 4.26671Z" fill="#687372"/>
<path d="M11.2063 9.57983C11.2063 9.85317 10.9863 10.0798 10.7063 10.0798H7.2063C6.93297 10.0798 6.7063 9.85317 6.7063 9.57983C6.7063 9.3065 6.93297 9.07983 7.2063 9.07983H10.7063C10.9863 9.07983 11.2063 9.3065 11.2063 9.57983Z" fill="#687372"/>
<path d="M5.64646 8.93321L4.14646 10.4332C4.04646 10.5332 3.9198 10.5799 3.79313 10.5799C3.66646 10.5799 3.53313 10.5332 3.43979 10.4332L2.93979 9.93321C2.73979 9.73988 2.73979 9.41988 2.93979 9.22654C3.13313 9.03321 3.44646 9.03321 3.64646 9.22654L3.79313 9.37321L4.93979 8.22654C5.13313 8.03321 5.44646 8.03321 5.64646 8.22654C5.83979 8.41988 5.83979 8.73988 5.64646 8.93321Z" fill="#687372"/>
</svg>
